<svg xmlns="http://www.w3.org/2000/svg" viewBox="0 0 960 560" preserveAspectRatio="xMidYMid slice"><style>.B{animation:dash-animation 20s linear infinite}@keyframes dash-animation{0%{stroke-dashoffset:100%}50%{stroke-dashoffset:0}100%{stroke-dashoffset:100%}}.C{stroke-miterlimit:10}.D{stroke-dasharray:100% 100%}.E{stroke-dashoffset:100%}</style><g fill="none"><g stroke="#006400" class="B C D E"><path d="M838.4 0l-94.9 66.3V177L720 194.3"/><path d="M846.2.1L751.5 67v115L720 203.5h-33l-10 9.5"/><path d="M853.5.2l-98 68.8v115l-31.8 23.5H705l-6.7 5.5"/><path d="M868.2.2L761.5 73.7V81"/><path d="M876.3.2l-97.1 67.5"/><path d="M885 .2l-81.3 57.5"/><path d="M890.8-.3l-93.1 67.8H792l-12.8 8.8"/><path d="M897.8.4L761.7 97.3l-.2 91.3-38.5 24.9h-7"/><path d="M698 225.5h15l53.5-37.8V100L908.3.4"/><path d="M915.8.2L772.5 101v93l-42.2 28.3"/><path d="M927.3.3L779.5 103v8"/><path d="M799.2 97.3l-10.7 9.2V190l-9 7"/><path d="M761.5 212.8l-31.2 20.7-54 .5-10.3-7.3"/><path d="M811.5 111V88L939 .3"/><path d="M823.5 107v-4L960 7.7"/><path d="M960.2 13.7l-127.7 89.1v4.2"/><path d="M960 21l-115.7 81.8"/><path d="M960 28.8L813.5 132.2l-2 40.8v3l-8.3 7"/><path d="M643 239.2l5.3 3.3H737L959.7 87"/><path d="M841.2 138.1l105.3-75.5V56l13.2-8.9"/><path d="M959.6 57.3l-6.1 3V68l-115.1 79.2"/><path d="M837.9 162.2l10.6-5.2v-7l111.1-77"/><path d="M959.6 81L857 151"/><path d="M959.9 92.5l-229.6 161H670"/><path d="M677 261.5h50l226.7-158.7 6.5-.5"/><path d="M960 121.5h-25l-204.7 146H667"/><path d="M669.8 276.8l7.2-4.3h11l19.7 15H939l6-6h15"/><path d="M685.2 282.8l12.8 8.7h262"/><path d="M654.1 302l3.4-6.5H674l3-2h8l13 11h231"/><path d="M651 330.5h3l3.5 3.8v5.7l4.5 3.5h8l22.5-17H724l18-12h189l13.5 11H960"/><path d="M732.2 331.9l4.3-2.9v-6l8.5-6.5h182l16.5 13H960"/><path d="M752 324.5l4-3h167l13.5 10H960"/><path d="M759.5 329.3l5.5-4.8h154l5.5 4.5"/><path d="M772 331.5h104"/><path d="M902 329.5h-4l-13 8H772l-5.5 6"/><path d="M667 352.5h10l21.3-16H714l11 8h13"/><path d="M789 343.5h79"/><path d="M859 349.5H722l-7.8-6H700l-19.5 16H657"/><path d="M663.2 374.8l10.8-7.3h11l6.5-3H742l13-9h91"/><path d="M700 371.5h38l10 7h114l46.3-34H960"/><path d="M669.5 383.5l5-5H723l7.3 7H960"/><path d="M738.2 379l5.3 3.5H960"/><path d="M879 378.5h81"/><path d="M886 371.5h18l4.3 3.3 51.3-.3"/><path d="M919 369.5h41"/><path d="M943.5 362v-5l16.5-1.5"/><path d="M918.9 355.5l3.9-4H960"/><path d="M897.3 364.8l8.2-5.3V353l7-5.5H960"/><path d="M677.2 394.3l-2.7-3.8V386l5-3.5H720l7 6h233"/><path d="M716.2 388.9l7.8 3.6h236"/><path d="M700 396.5h260"/><path d="M726.9 404l3.4-4.5H960"/><path d="M702 408.5h25l8.5-7H960"/><path d="M683.1 409.2l5.4 3.3H732l8-7h220"/><path d="M667.2 409.5l9.8 6h61l6-6h216"/><path d="M654 419.5h76l13.5 9H766l9.9-7H960"/><path d="M749 424.5h2 13l11.9-7H960"/><path d="M763.5 417.5l3-5 193.7 2.5"/><path d="M667.1 429.2l7.4-4.7H727l11 7h34l7.5-7H960"/><path d="M681.2 432l4-3.5H725l9.5 6H779l9.8-6.5 170.8.5"/><path d="M650.9 434.9l6.1 2.6h24l13-6h26l10.3 6H843l21.5 16H960"/><path d="M862 446l6 2.5h92"/><path d="M876 442.5h84"/><path d="M856 434.5h6l6 4h92"/><path d="M761 263.5h15l92.2-64H923"/><path d="M751.5 258.8l-3 2.7v4.5l6.1 3.5H776l79.8-56 30.2-.7 4.8-2.3"/><path d="M919 188.5h15l5 4h13l7.6-6"/><path d="M959.1 193.3l-4.1 4.2h-19l-4-3h-67l-63.6 46H794"/><path d="M766.4 248.2l17.1-11.7H801l43.5-32V200"/><path d="M815.2 261.6l8.9-6.1-.5-7.1 38.2-25.9H929l14.5-9H960"/><path d="M832.5 258l-.3 5.5 6.2 6H872l7-4 81.2-1.7"/><path d="M849 253.5h-5l-5.5-3V246l27.3-20.5H935l10-9h15"/><path d="M954 227.5h6"/><path d="M870 241.5h90"/><path d="M875 249.5h71l4 5h10"/><path d="M954 245.5h6"/><path d="M803.7 269.5l5.3 3h110"/><path d="M495 383l8.5 2.5V418l9 6.5V437l-11 9v79l11 8.5H533"/><path d="M517.2 421.2l5.3 3.3V443l-9 5.5V485l17 11.5V516l16 10.5H670l46 33.5"/><path d="M569.9 536.5l5.6-5H663l39.5 28.5"/><path d="M508.9 560l24.1-17.5h134l23.5 17.5"/><path d="M523.5 560l14-11.5H661l16 11.5"/><path d="M535 560.2l8-5.7h114l6.2 5.7"/><path d="M534.8 442.5l-1.9 25.5 52.5 37 2.1 3 121.3-2.5 10.7 8V540l27 20.2"/><path d="M525.5 454v24l36 26.5v8.5l8.4 6.5H674l58.2 40.7"/><path d="M578.8 511.2l5.2 3.3h116l7.5 4V532"/><path d="M536.6 410.2l6.9 5.2V466s44.5 33.5 46.5 33.5h130l10.5 7.6V539l29 21"/><path d="M552.5 432v30l44 31.5H732l8.5 5.5v35l35.4 26"/><path d="M748.5 496l.5 37.5 39.8 26.7"/><path d="M760.5 501v27l22 14.5H830l4.5 3.3v9.2l-6 2.4v2.6"/><path d="M794.1 504l12.9 9.5h21"/><path d="M561.5 421v37l42.5 30.5h209l89 63h58"/><path d="M567.5 431v23l42.5 28.5h205l87.5 61.8 57.1 1.5"/><path d="M584.3 453.8l34.2 23.7H815l87.5 62H960"/><path d="M610.2 458.2l18.7 13.3H797"/><path d="M584.3 432.5l48.2 35H811l91 63h58"/><path d="M569.8 412.7l64.7 45.8H823l53.8 38H960"/><path d="M584.5 410v5l51.7 38.5H834l48.5 35H960"/><path d="M609.7 408.7l-6.2 3.8V424l36.2 24.5 198.4.9 47.9 36.1h74"/><path d="M614.7 421.3l1.8 7 26.6 18.2H838l27.8 18H960"/><path d="M635.5 421.4l7 3.1V439l5.6 3.5H698l9.5-8H722l8.3 8H842l22 16h96"/><path d="M766.1 497.1l5.4 3.9v27l12.5 9.5h48l9.5 6.8V558"/><path d="M488 399.4l6.5 4.6v156"/><path d="M485.5 421v136"/><path d="M485.2 409.4l-7.7 6.1V431l-5 3.5V560"/><path d="M465.5 438v122"/><path d="M441.5 399.4l21 15.6v9l-4.5 4 1 123.2"/><path d="M439 410.5l6.5 4.5v119l-25 17.2"/><path d="M437.5 421v107L415 542.5"/><path d="M387.5 560v-14l43-29.5V428l-6.5-4"/><path d="M420 410.2l-5.5 2.5V424l6 4.5V497l-42 31.1V560"/><path d="M405.8 410.2l-9.3 5.3v9.5l12 9.5V494l-44 31.5V560"/><path d="M404.8 399.6l-12.3 8.9V429l9 5.5.3 45.2-43.3 27.4V560"/><path d="M307 551.2l16.5-11.7"/><path d="M288.5 551.2l41-29.6 6 2.4"/><path d="M274.9 545.8l106.6-74.3V404l-5.5-4.6"/><path d="M390.5 400.1l-4 1.7V435l4 3v40l-42 29.1V560"/><path d="M374.5 413v20l-3 1.5V467l-116 81.5V560"/><path d="M246.5 560v-15l114-80.1V435l9-4v-15l-5-3.5V402"/><path d="M360.5 424v4l-8 4.5V462l-116 80.5V557"/><path d="M189.8 560.6l32.7-24.1h8.5l110.5-78V433l7-5v-15l5-4.5"/><path d="M341 410.6l-8.5 6.9V458L230 528.5h-9L177.5 560"/><path d="M162 560.8l52.5-36.3h8.5L323.5 451v-16"/><path d="M323 420.9l-11.5 7.1v21L217 516.5h-10l-61.5 44.1"/><path d="M132.5 560.3l71.5-48.8h7l95.5-68.6V421l16.5-11.5"/><path d="M345.2 397l-4.2-4.5h-13l-16 12h-18l-27.5 16.9V435l-154 107.5H0"/><path d="M0 548.5h123l66.8-49H208l68.5-50.3V428"/><path d="M259 451.5h-7l-43.5 33v3.5"/><path d="M290.8 421.2l-6.3 3.3V452L211 503.5h-13L116.5 560"/><path d="M93 560l-7-5.5-86-.3"/><path d="M0 539.5h108l151-105"/><path d="M255.2 419.5l-12.7 9V440L107 533.5 0 536.4"/><path d="M57.5 528.1c2 .9 46 0 46 0l124.2-85.6"/><path d="M164.5 473v7l-64 44"/><path d="M81.5 522v-11l24-15v-7"/><path d="M138.5 480v5L103 511.2"/><path d="M105.5 471.5l-9-1.7-15 11.7v7.5"/><path d="M84 495.6l36.8-26.1H132"/><path d="M0 530.5h39l35.5-25V478L93 464.9l86.5-.4 75.7-52H269l5.9-4"/><path d="M274 373.6l-6 4.9h-13l-8.5 7.3V396L167 451.5H81l-27.5 21.1V499l-24.8 18.5H-.5v-3H27l23-16-.3-28.7L79 449.5l85.5-1.2 76.5-54 .7-10.1 13.5-8.7h6.8l9.6-8H285l5.8-4.8"/><path d="M274.4 362.6l-3-1.4-6.7 6.3H217l-6.5 4.5v28l-52.8 37.5H71l-38.5 28.2V492v2L19 503.5H0"/><path d="M0 507.5h21L38.5 494v-28L74 442.5h2 84l59.5-44.5v-21"/><path d="M227.5 395v3L162 445.5H76l-32.5 24V496l-20.2 13.5H0"/><path d="M0 520.5h30l28.5-19.8V473l25.2-17.5H168l83.5-58.2V390l7.5-4.7"/><path d="M0 524.5h35l28.5-21V475L86 459.5h87l77.3-56H263l6.5-4.1V383l7-5.5h9.5l2.5-2.5"/><path d="M0 527.5h37l30.5-24V476l21.2-13.5H177l76-55h11l10.9-8.1 1.6-11.7"/><path d="M194.5 353.8l11.2-8.3H225"/><path d="M1 399.5h9"/><path d="M154 328.5h5.8l32.2-24h73.3l8.7-5h28l5.4-5 .1-1.5v-68l-5-4v-18l-3.5-4.5h-14l-4.7-3.8"/><path d="M1 293.5h26L83.5 254v-5"/><path d="M0 285.5h27l41.5-29.8V249"/><path d="M97.5 249v8l-24 16.3V284l5.3 1.5"/><path d="M86.3 276.7l34.5-23.4 1.2-5.6"/><path d="M135.3 249l-.1 4.7L99 280"/><path d="M81 299.5H47l-20.5 15.2V347l-5.5 4.4-13 .3-5.3-4.6-2.7-1.6"/><path d="M0 337.5h5l8.3 5.2"/><path d="M11.9 325.6l5.6-3.9V310L3.3 299.5H-1"/><path d="M.6 356l21.6.4 8.3-6.6 2-1.2V317l13.5-9.5h39l6.7-4.8"/><path d="M49.3 320.8l-8.8 5.9V352l-17.2 11.5H0"/><path d="M.6 368.3s57.1 2 72.9 0 20-7.1 20-7.1l20.4-14.1"/><path d="M60.2 329.8l18.6 14.7H103l56.8-40H173l17-11.5 7.5-1.3"/><path d="M144.5 332v-6l9.2-7.9c.3-.4 10.8 0 10.8 0l25.5-18.6h40l12.8-10H291l2.9 2.2"/><path d="M295.3 240.7l6.2 3.1V277l-7.6 6.5H186l-11.5 8.2v2.3"/><path d="M100.6 335.6l3.5-2.1h2.9l79.5-55H257l18-14h12l5.3 4.8"/><path d="M291 260.5h-19l-9.3 7H255l-7-5h-26l-2.8 1.5"/><path d="M222.6 271.3l-3.6 2.1-30.8-1.1-79.9 56.2H86l-5.5-2.9V321l3-2.9"/><path d="M99 307.3l14.9-10.8H132l45.5-32V262"/><path d="M128 301.5h4l65.5-47H265l4 2h17l6.3-4.2"/><path d="M256.8 261.2l-1.7-2.7H201l-91.2 65H93"/><path d="M127.5 286.1l53-36.6H216l3.5-4h5.5"/><path d="M274.2 249.3l-3.9-1.8H253l-11.7-8H63l-3.5 2.8v3.7"/><path d="M1 252.5h39l21.7-16H245l11.8 7h8.2l6.6-4h3.4"/><path d="M1 245.5h39l16.9-12H285l5.8-4.8"/><path d="M292.5 219.1l-13.8 9.4H55l-18.3 14H0"/><path d="M289.8 206.8l-7.3 5.2v7l-8.3 6.5H53l-18 13H-1"/><path d="M274.2 217.4l-6.5 5.1H49l-16.7 12H1"/><path d="M276.2 207.2l-8.2 5.3h-13l-2.3-3H187l-10.8 10H47l-16.5 11H1"/><path d="M259.3 207l-74.1-.4-10.7 8.9H46l-17.1 13H0"/><path d="M259.2 186.5l-6.7 3.5v7l-9.7 7.5H183l-11.6 7.5-129.2 1.2-15.5 11.3H1"/><path d="M242.2 195.3l-8.4 6.2H182l-12.7 7H40l-15.3 13H-1"/><path d="M208 194.5h-26l-17.5 12H39l-16 10.9-23.5.2"/><path d="M227.5 193.2l-4.9-3.7H180l-20.2 13H37l-16.3 12H1"/><path d="M208.2 183l-2.9 2.5H180l-20.2 14H34l-16.5 12H0"/><path d="M153.7 194.8l-4.4.7H32l-16 12H1"/><path d="M159 186.5h-7l-9.4 6H29l-15.7 11H0"/><path d="M93.2 188.2l-4.1 1.3H27l-17 12H0"/><path d="M93.5 179c3.2-.3 41.8 0 41.8 0l7.3 4"/><path d="M149.8 173.5l-1.8-2H68L49.3 185 22 186.5 10 195l-9.2.3"/><path d="M0 189.5h10l10.3-6H46l21.7-16H206l3.8 2.5"/><path d="M0 175.5h16l16.3-10.8c2.6-1.5 180.6 0 180.6 0l9.6 5.1v6.2l5 2.5"/><path d="M-1 167.5h12l13.7-10H230l12.2 10H270l2.7 2.3"/><path d="M293.8 180.9l-11.2-7.9-1-8.2 6.2-3.1-1.5-4.3-4.6-2.9H22l-4.5-3H8l-5 3.8-3.5-.3"/><path d="M.6 137.6h260.8l14.9-9.6"/><path d="M289.6 123.6l-5.9-4.1H271l-18.7 13H19l-7-4H1"/><path d="M1 119.5h9l11.7 9H201"/><path d="M-.1 145.8l4.1-3.3h228"/><path d="M.3 152.7l7.9-7.2H259l19.3-13H301l4 1.8"/><path d="M305 146.2l-3.5-3.7H286l-3.7-2H275l-12.7 10H30"/><path d="M0 52.5h36l31.7 21H253"/><path d="M245 90.5h38l30 21 14 .4"/><path d="M0 48.5h54l19.5-14H97l17.3-13H159L179.3 7"/><path d="M83 38.5h19l16.1-11H173l16.5-12.8V0"/><path d="M59.9 52.4l10.8-6.9H105l17-12h57l23.5-16.2V0"/><path d="M211.5 0v21l-29 19.8V45l-6.3 5.5H133"/><path d="M133.4 62.8l7.6-6.3h54l21.5-14.2V0"/><path d="M72 61.5h29l32-23h19"/><path d="M116.1 62l9.2 6.5H223l7.7-5.5"/><path d="M222.6.4L232 7l-1 41.5 7 3.9"/><path d="M236.6.5l5.9 4.8v34.4 1.2s-.2.1.2.6 1 .8 1 .8.2.2.7.3.8.2 1.3.1.8-.2 1.2-.5c.3-.3.6-1.2.6-1.2V1"/><path d="M252.5 1v56l37.1 25.5H330l39.5 29V146l13.8 10"/><path d="M318 90.5h12l33.5 22.5v39l4.8 4"/><path d="M317.9 97.7c1.3.8 16.6-.1 16.6-.1l21 15.4v22"/><path d="M327 105.5h10l11.5 7.5v30l4.5 2.8"/><path d="M11.5 16.5l6-5H108L122 1"/><path d="M110.6.2L99 8.5H12"/><path d="M15.8.7l5.9 3.8H92L97 0"/><path d="M0 38.5h57l11.5-7H90l18.3-14H152l17.5-13V0"/><path d="M8.5 28v-3L23 15.5h106L149.8 0"/><path d="M266.5 1v59l27.4 19.5H332l42.5 30.2V138l8.8 6.2"/><path d="M272.5 1v59s-.1.5.2.9.2.5.8.7c.5.2.6.2 1.2.2.6.1.9.1 1.3-.1s.6-.4 1-.7.3-.1.5-1.1V0"/><path d="M281.5 0v65L296 75.5h38l44.5 31.1V129l6.8 6"/><path d="M311.5 0v65l4.2 5.5H340l31.3 22H385"/><path d="M330.5 62V33s0-1.1.5-1.6.8-.8 1.2-1c.5-.2.5-.2 1.2 0s1.3.8 1.7 1.2c.3.5.3 1.3.3 1.3v29l32.8 23.5h6.7"/><path d="M364.3 68.5l-4.8-3.5V25s-.3-.8-.9-1.2-.7-.2-1.5-.1c-.8.2-1.1.3-1.4.9s-.2 1.4-.2 1.4v37s0 1.4-.2 1.9-.8 1.1-1.8 1.1-2.3-.2-2.5-.4-.5-.8-.6-1.6.2-1 .2-1V25s.1-.2-.1-.7c-.2-.4-.3-.7-1.2-1.1s-1.2-.1-1.2-.1-.9 0-1.8.6c-.8.6-.7 1.2-.7 1.2v32l-1.1.7-1.5.2s-1 .1-1.7-.3-.5-.3-.7-.7c-.2-.3-.1-.9-.1-.9V16.7l3-2.7V5s-.2-.7-.8-1.2-.7-.6-1.6-.8-.7 0-1.6.2-1.1.8-1.1.8v6s.1.8-.4 1.2-.5.4-1.2.7-1.1.2-1.9 0-1-.3-1.2-.6-.2-1.3-.2-1.3V0"/><path d="M379.5 1v73l20 13.5V122l3.5 2"/><path d="M383 1l1.8 71.8L404.5 87v31l8 5.2V141l-4.2 3.2"/><path d="M392.7-.1l-4.2 2.3V70l20 15.5V114l9 7.5V143l3.2 2.5"/><path d="M397.9.7L394.5 4v65l18 13v25l4.2 2.7"/><path d="M405.7.9l-6.2 3.6V68l17.1 12.7 1.9 1.3v18l2.2 1.2"/><path d="M409.6.3L402.5 5v54l3.5 2.5"/><path d="M415.5 0v2l-7 5v50l7 5.8V73l7 5.5V97l10 5.4v4.6"/><path d="M420.5-.1l.2 4.4-8.2 4.5V50l4.1 1.1"/><path d="M426.5 0v62l-5 3.2V74l6 4.5V95l16 10.5V118l-14 10v15l3 1.2"/><path d="M448.2 146.2l-8.7-6.1V129l9-7.5V100l7-5.1V69l-10-7.5V1"/><path d="M430.5 0v65"/><path d="M435.5 0v65l4 2.5.5 21"/><path d="M441.5 0v65l4.2 2.5"/><path d="M450.5 0v59l10 8.5V97l-7.2 5.4-.3 21.6 7.5 4.5V153l-5 3"/><path d="M460.3 105.6s5.2-3.1 5.2-4.3V65.1l-10-8V0"/><path d="M460.5 1v54l9 7v71"/><path d="M472.5 146.4l7-3.9V133l-5.5-3 .7-68.5-9.2-6.3V0"/><path d="M469.5 0v53l10 6.2.4 69.2s4.6 1.5 4.6 2.5v13"/><path d="M439.3 160l6.4 4.5H460l15-10h11l6.5-4V133l-8-4.5V59l-9.5-7.9-.3-51.2"/><path d="M479.5 0v45l6.9 10.2L522.5 82v18l-3.5 3.5 1.3 31.5-33.6 25"/><path d="M503.8 133l6.7-5v-12l-18-12.5V74l1.2-2"/><path d="M504.5 82v13l6 2.6"/><path d="M528.8 106.8l-4.3 2.9V153l-4.8 4.5"/><path d="M533.2 146.6l7.3-6.1V98l-7.3-3.1"/><path d="M551 154.9l24.5-17.3V100s41.2-26.3 41.8-28c.7-1.7 0-39.5 0-39.5l-3.7-2.5"/><path d="M487 7.5h-3l.5 23.8 8 5.2H577l4.5 5.5v33l-12 10.5V118l-4.2 2"/><path d="M629.5 1v15l-5 4.8V73l-43 30.5V155"/><path d="M593.4 142.2s-6.9-2.7-6.9-4.1V107l19-12.5H654l3 3.1"/><path d="M650.5 110v22L633 144.2"/><path d="M605.3 111.1l8.2 6.5V165"/><path d="M676.5 144.2l-10-6.2v-32l5.2-3.7-.7-8.2c0-.3-9.1-6.7-9.1-6.7h-2.6c-1.3 0-4.7-1-4.7-1s-2.9-1.1-4-1.9-1.8-1.2-2.6-2.6-.7-2-.7-2V26s-.8-.4-1.5-.5-1.4.1-1.4.1c-.7.1-1.1 0-1.8.4s-.9.8-1.2 1.4c-.2.7-.2 1.6-.2 1.6v26s0 .5-.3 1-1.4.7-1.4.7l-1.4-.2-1.8-.5V25.2l6-4.2V1"/><path d="M680.2 0l-29.7 20.8V78s0 .5.6 1.5.8 1.2 1.8 1.6c.9.3 1.8.3 1.8.3l1.2-.2s.5-.2.8-.8c.2-.6-.2-1.3-.2-1.3V29s-.2-.3.7-1.2c.8-.8.9-1 1.5-1.2s.6-.2 1.2-.3c.7-.1 1-.1 1.6.3s1 .2 1.5.9a2.86 2.86 0 0 1 .5 1.5v52l13 9.5V107"/><path d="M702.2.3L666.9 26l-.5 54 16.2 10.5-.5 12.3 4.4 4.4v8.8l-6.3 4"/><path d="M708.7 0l-38.6 26.4L670 75a6.58 6.58 0 0 0 .9.9c.5.4 1.2.8 1.6.8s1 .2 1.6.2.9-.1 1.4-.5.9-.8.9-.8l.1-.6V56s.2-.4.6-1c0 0 .5-.8 1.2-1.1.8-.3 1.1-.3 1.9-.3s1.3.2 2 .6 2.2 1.8 2.2 1.8v17l8 7v15"/><path d="M747.2.4L687.5 42v28l17 12.2V104l-6.5 3.2"/><path d="M756 .6L710.5 33v78l-10 8.5V132"/><path d="M700.2 144.4l7.3-5.8V120l10-8.1V45l64.8-45"/><path d="M727.5 168V59l83.2-59"/><path d="M817.5 0l-84 59v113l-20.8 15.3-12.4-.3-14.3 9.7-15.7-.4-6 5"/><path d="M666.4 210.9l11.9-9.4H689l15.3-11H718l20.5-15.5V62L828 0"/><path d="M804.7 102.7l-9.4 6.3-.6 59.7 5.6 4"/><path d="M666.7 235l3.3 2.7 62 .3 88.3-63 .4-42.7L960 34.7"/><path d="M654.8 237.8l3.8 2.7H733l95.3-66.2c.3-1 1-42.3 1-42.3L960 41"/><path d="M2 57.2l22.1-.1L57 80.5h135s.7-.2.7.8.3 1.2-1.2 1.3c-1.5.2-90.7-.2-90.7-.2s-1.4-.2-2.1.5-.9 1.2-.9 1.8c0 .7.2 1.2.6 1.4.3.2.2.3.8.8s1.6.4 1.8.5h113.7l12.8 7.5v22l-4.7 2.6"/><path d="M215.8 95.1l-2.6-2-30.1-.2-5.2 3.6h-71.2c-.1 0-1 .1-1.6-.8-.5-.7-.2-1.4-.2-1.4.2-.8 1.1-1.5 2-1.6l65 .2c.2.1.9.2 1.7-.2.2-.1.7-.4.8-.9 0 0 .2-.6-.2-1.2-.3-.5-.8-.6-1.4-.8a6.78 6.78 0 0 0-2.5 0l-72.2.2-9.8-6.6-35.2-.2-13.7-9.3L0 74"/><path d="M0 90.5h88.3l14.7 9.9h59.9c.4-.1 1.1-.2 1.9.1.3.1 1.2.4 1.3 1 .1.4-.3.8-.4 1-.5.6-1.2.7-1.4.7l-65.8-.2c-.4 0-1.3 0-2.2.6-.3.2-.9.6-1.1 1.3-.1.2-.2.7 0 1.3.4 1 1.5 1.4 1.9 1.5.6.2 1.1.2 2.1.2.7 0 1.2 0 1.6-.1l71.2-.6 14.6-10.7H201"/><path d="M190 105.3L173.1 118l-74.2-.1c-.9 0-1.6-.2-2-.3-.5-.2-1.1-.5-1.4-1.1-.1-.1-.2-.6-.1-1.1.3-.9 1.3-1.2 1.3-1.2l62.2.2c.3 0 .8.1 1.3 0 .9-.1 1.5-.1 2-.6.6-.5.7-1.2.8-1.3 0-.1.1-.7-.2-1.2-.4-1-1.4-1.3-1.6-1.3l-128-.1-7.4.1-14.4-10.5-11.4.2"/><path d="M287 0l-.1 58.4s-.2.1.7.7c.8.6.4.6 1.3.7s.8.2 1.4-.1c.7-.2 1.3-.7 1.6-.9S292 0 292 0"/><path d="M296.6 0l-.1 1v68l3.5 3.5h37l46.3 33 1.9 18.5 9.3 8.5V153l6.2 3"/><path d="M301.2 0l-.2 65.8s.2.6 1 1.1.5.6 1.4.6 1.1 0 1.7-.4.9-.5 1.2-1-.1-66-.1-66"/><path d="M326.4 61.4c.1.2.2.7.5 1.1.2.2.4.6.9.8.7.2 1.3-.1 1.5-.2.5-.2.7-.6.8-.8"/><path d="M326.8 62l-.3-29.1s-.2-.5-.8-.9c-.5-.4-1.1-.8-1.8-.8s-.7-.1-1.4.6c-.8.7-.9 1-1.2 1.6-.2.6-.2 2.8-.2 2.8l.3 25.9s0 .6-.6 1.1-2.2 1-2.2 1-1.1-.1-1.8-.6-1.2-.8-1.2-1.9c-.1-1.2-.2-44.2-.2-44.2l3.1-2.4V0"/><path d="M347.6 0v11.1l17.1 11.3.4 40.7c0 .1-.2 1.3.5 2.1.6.6 1.4.7 2 .7s1.5 0 2.1-.6c.7-.6.8-1.8.4-2.8l-.5-43.3c0-.2-.1-1.2.6-1.9.5-.5 1.1-.6 1.6-.7s1.1-.2 1.7.1c.9.4 1 1.4 1.1 1.7.2.8-.1 1.4-.1 1.7V76"/><path d="M519.9 0s-.8.7-1 1.8-.2 1.6-.2 2.4.2 1.3.7 1.8c.4.4.8.8 1.2 1l1.3.6h92s-.1-.1 1.2.5 1.8 1.2 2.2 2.1.8 2.1.7 3.4-.2 2-.8 2.8c-.7.8-1.2 1.5-2 1.8s-1.6.8-1.6.8-113-1.3-114 0"/><path d="M500.1 18.8l-3.1.2c-1 .4-1.8 1.1-2.4 1.8-.7.7-.7 1.5-.6 2.8s.2 1.7 1.3 2.8c1.2 1.2 1.9 1.3 3.1 1.8 1.2.4 2.6.2 2.6.2h91"/><path d="M519.9 54.6c.3-1 .9-2.8 2.5-4.2.3-.3 1.3-1.2 3.8-2.1 3-1.1 5.6-1.2 6-1.2 9-.4 33.7-.3 33.7-.2h0c.4 0 .9.1 1.6.2a9.24 9.24 0 0 1 4.2 2.4c.9.8 2.4 2.3 2.8 4.8.1.3.4 2.8-.9 5.1-.3.6-.8 1.1-1.8 2.2-.6.6-1.1 1.2-3 2.8l-3.9 3.5a28.48 28.48 0 0 1-2.2 2l-1.2 2.2v32"/><path d="M540.3 79.5l-2.8-2.8-5.8-.2c-.2.1-.6.1-1.1 0-.7-.2-1.5-.7-1.7-1.6-.1-.5.1-1 .2-1.2.4-.8 1.2-1.1 1.4-1.2l7.8.1c.3.1.8.2 1.5 0 .3-.1 1.1-.3 1.3-1 .1-.4 0-.7-.2-1.3-.2-.5-.3-.8-.6-1-.5-.4-1.1-.3-1.2-.2l-16.3.2c-.2 0-.6 0-1.1-.1-.4-.1-1.2-.3-1.4-.9-.1-.4.1-.9.2-1.2.3-.6.8-.9 1-1l26.7-.1c.3 0 .7 0 1.2.2.3.2.5.4.8.7.4.4.7.7.8 1.2.1.3.1.7.2 1.3v1.1l.6 27.4-4.8 3.6-.2 9.8 9.2 6.2.5 25.5c-.1.2-.3.6-.7.9-.7.5-1.4.4-1.8.3-.6-.1-1-.3-1.2-.5 0 0-.6.4-.5-2.1s-.2-21.4-.2-21.4c0-.3-.1-.8-.5-1.2s-1-.4-1.8-.4-1.5 0-2.2.4c0 0-.8.5-1.2 1.8l.4 28.3-9.5 6.3"/><path d="M891 165.5h9.8c.4-1 1.7-.6 3 .1 1.1.6 1.6 1.4 1.8 1.9.4.8.6 1.5.7 2.1.2 1-.1 2.2-.2 2.9l.2 5.1c.5.9 1.1 1.3 1.5 1.5.7.3 2.9.4 2.2.3h0c.9.2 1.9-.2 2.3-1 .6-.9.2-1.9.2-2l.5-10.4.7-1.3h0 0c.3-.2 1-.5 1.8-.5.7 0 1.2.3 1.7.5.6.3 1.1.6 1.5 1.2s.4 1.3.3 1.7l-.7 6.8c.1.2.4.8 1 1.2.7.4 1.5.2 1.8.2.3-.1.9-.3 1.5-.8l1-1.8-.5-22.2c0-.1-.2-1.1.5-1.8.6-.6 1.3-.5 1.8-.5.3 0 1.2.1 1.8.7.6.5.7 1.2.8 2a5.28 5.28 0 0 1 0 2.2l-.7 21.7c-.1.2-.1.6 0 1 .3 1 1.5 1.3 1.7 1.3.9.2 1.7-.1 2.2-.3s1-.5 1.3-1.2c.6-1-.2-2.2-.2-2.3V136l9.5-6.2 18 .2"/><path d="M808.8 125.3l.2-4.8 8.8-5.7.2-26.1L943.5 0"/><path d="M824.5 94.8l.2-5.5L952.5 0"/><path d="M960 1.5L834.5 89.2"/><path d="M800.5 113v49"/><path d="M685.8 156.8l8.7.3s.3-.2 1.2.3c.8.5 1.2.3 1.3 2l.2 9c.2.2.5.7 1.2 1 .1.1.9.4 1.8.3 1.1-.1 1.7-.7 2.2-1 .6-.5 1-1 1.2-1.3l-.3-11.2.8-1.2h0 0 0 0 0c.2-.3.8-.8 1.7-1 1-.2 1.9.4 2.4.7.7.4 1.4 1 1.4 1.3v7.8c0 .8.5 1.2.8 1.3 0 0 .2.2 1.6.3h0 0c.1 0 1 .1 1.6-.7.6-.7.3-1.6.3-1.7l-.7-23.2c0-.1.1-1.6 1.2-2.2.6-.3 1.2-.2 1.7-.2.4.1 1.3.2 2 1s.8 1.7.8 2l-.3 24.5c0 .1-.3 1 .2 1.7.4.5 1.1.5 1.7.5 0 0 .6 0 2.3-.5h0c.3-.6.6-1.1.8-1.7l-.2-119.2 9.2-6.5 14.8-.2 56.3-39"/><path d="M637.4.2l-.5 19.6-5.2 2.9.1 64.2 6.2 4.6 22.8-.2 5.9 4.5.1 5.5-4 3.4.5 31-9.8 6.8V160l30.3 20.5H709"/><path d="M893 185.5h-5l-3.2 2.5-35-.2-54.3 38"/><path d="M803.7 493.3l-13-.1-8.7 6.1-.3 8.2 22.5 16.2 43.6-.9 48 33.5 64.2-.1"/><path d="M791.7 526.5l7.5 5.3 38 .2s16.3 10.7 16.3 11.3c0 .7.3 16.7.3 16.7"/><path d="M258.8 316.8l-61.5-.2-136 95.4-51.3.7c-.3-.1-1.4-.3-2.5.5-.2.1-1.3.9-1.2 2 .2 1.2 1.8 1.6 2 1.7.8.2 1.5.1 1.8 0l42.8-.2c.1 0 .9-.3 1.5.2.8.6.7 1.7.7 1.8-.1.9-.8 1.4-1 1.5-.8.5-1.8.5-2.7 0l-23.4-.4c-.3.1-1.1.3-1.7 1-.2.2-.8 1.3-.5 1.9.3.5 1.1.8 2 .8h17.3c.1 0 .9.1 1.2.9.2.9-.5 1.5-.7 1.7-.9.9-2.1.8-2.3.8l-20.7-.2-3.5-2.3-.5-2.8-2.7-2H0"/><path d="M-.2 390.8l12.1.4L28.6 379l28.9-.2c.1 0 1 0 1.5.7.6.7.6 1.6.2 2.3s-1.3 1.1-2.2 1l-23.3-.2-1.3.7h0c-.5.4-.7 1.1-.5 1.7.3.7 1.3 1.1 2.2.7l25-.2c.1 0 .9.1 1.3.8 0 0 .6.9.2 1.8-.3.7-1.2 1.1-2 1l-24.9-.1a2.06 2.06 0 0 0-1.7 1.2c0 .1-.4.9 0 1.7s1.4 1.2 2.5 1l42.3.2 118.3-83.7 51.8.1 4.2-2.9H272l2.7-1.3"/><path d="M290.3 307l-5.5 4c-.5 0-30.7-.3-30.7-.3l-4 3-54.8-.7-117.6 83.2-47.7-.4c-.1 0-.9 0-1.5.7-.4.5-.7 1.3-.3 2 .4.8 1.5 1.1 2.5.7l34.7-.2c.2-.1.9-.2 1.7.2s1.3 1.3 1.2 2.2c-.2 1.3-2 1.8-2.3 1.8-.7.2-1.3.1-1.7 0l-37.3-.7-1.8.5h0c-.6.4-.9 1-.8 1.5.1.7 1.2.8 2.7 1 1 .2 32.2-.2 32.2-.2.9-.1 1.8.3 2.2 1 .5.9 0 1.7 0 1.8-.4.9-1.4 1.1-2.2 1.3-.7.2-1.3.2-1.7.2L0 409.3"/><path d="M275.6 329.7c-.7.3-12.2 8.8-12.2 8.8s-10.4-.7-10.9.1-16.7 12.8-16.7 12.8h-26.2l-17.5 13.2H188"/><path d="M188.3 371.8c1-1.2 23.5-16.8 23.5-16.8l24.7-.3 18-12.5 18 .2 2.7-2.2"/><path d="M274.7 349.5l-5-4H257l-17.8 12.7-24.5.3-13.2 9.5v8l-8 5.7-7.5-.2"/><path d="M184.3 390.3l-2.7 2-.2 13.7c-.1.2-.4 1.1 0 2 .6 1.1 1.9 1.3 2.3 1.3.2 0 1.6.2 2.7-.8 1-.9 1.1-2.1 1-2.3-.5-1 0-10 0-10 0-.3.2-1 .8-1.7.2-.2.8-.8 1.8-.8.9 0 2 .5 2.3 1.5.3.7.1 1.4 0 1.7l.2 3.7.3 2.7h0c.1.1.8.8 1.8.8s1.6-.6 1.8-.8c.9-.9 1.2-2.1 1-2.3-.3-.3-.5-14.2-.5-14.2 0-.1-.2-1.3.7-2 .8-.8 2-.4 2.3-.3.2.1 1.3.4 1.8 1.5.5 1 .1 2 0 2.2l-.2 8.3c.1.2.4 1.1 1.3 1.3.7.2 1.2-.1 1.8-.3.5-.2 1.1-.5 1.5-1.2.6-.9.4-1.9.3-2.2-.2-.5 0-25.3 0-25.3l10.3-7.5 28-.2 13.5-9.5"/><path d="M243.7 330c-.7.7-12.5 8.7-12.5 8.7l-28.7-.7-27.5 20.2-.5 41.5-38.3 26.5c-.1.1-.8.8-.7 1.7.2 1 1.3 1.4 1.5 1.5l3.2-.3 26-18.8c.3-.3 1.5-1.1 3-1 .4 0 1.4.1 2.3.8.2.2 1.2 1 1.2 2.2s-.9 2.4-2.3 2.8l-29.5 20.3-71.6-.4-40.7 28.3.2 21.2-5 4.3L0 489"/><path d="M0 470.5h12l54.3-38.7 54.3.3 35.7-24.7c.2-.1 1.1-.7 1.3-1.8.2-.9-.1-1.9-.8-2.5-.9-.7-2-.5-2.7-.3-1.1.2-1.8.8-2.2 1.2l-29.5 20.7a5.23 5.23 0 0 1-1.7 1.5c-.6.3-1.7.9-2.5.3-.6-.4-1-1.3-.7-2.2.2-.6.8-1.1 1.5-1.2l46.7-32.8 1.7-1.3c1.8-1.4 2.7-1.7 2.7-2.3 0-.7-.9-1.2-1.3-1.5-1.2-.7-2.4-.5-2.7-.5-1.3.2-2.1 1.1-2.3 1.3l-22.7 16c-.2.4-1 1.4-2.3 1.8-.2.1-2.2.7-3.2-.5-.6-.8-.4-1.9-.3-2 .2-.9 1-1.6 2-1.8L170 377l.2-22.2 28.7-20 20.2.3 9.3-6.3"/><path d="M215.9 328.6l-4 3.1-14 .1-32.3 22.8-.2 10.5-44.8 31c-.8.2-1.5.8-1.7 1.5-.3 1 .5 1.8.7 2 1.1 1.2 3.1.7 3.3.7 1.2-.3 2-1.1 2.3-1.5l31.7-22.3c.1-.1 1-1.1 2.3-.8.8.1 1.8.7 1.8 1.5 0 .2 0 .7-2.3 2.7-.7.6-1.2 1-1.7 1.3l-54.5 38.2c-1 .5-1.5 1.4-1.3 2.2.2 1.1 1.8 1.3 2 1.3 1 .2 1.9-.3 2.7-.7.7-.3 1.2-.7 1.5-1l17.2-12.2c.2-.2 1.1-.9 2.3-.8.3 0 1.4.1 2 1 .5.9.2 1.8.2 2-.4 1.2-1.5 1.8-1.7 1.8l-22.2 15.5H64l-47.8 34H0"/><path d="M0 443.3l35.2.2 25.7-18.2 24.7-.2 27.8-19.3c1.2-.9 1.8-1.9 1.5-2.3-.3-.5-1.5-.2-1.7-.2h0 0 0l-2 .7-19.5 14c-.3.3-1.5 1.3-3.2 1.2-.3 0-2.4-.2-2.7-1.5-.2-.7.3-1.6 1.2-2.2"/><path d="M86.5 415.5l69.5-47.8c1.1-.4 1.9-1.3 1.8-2.2 0-.7-.6-1.3-1-1.7s-1-.9-1.8-1c-1.4-.1-2.4 1.2-2.5 1.3l-34.2 24c-.3.3-1 1.2-2.2 1.5-.3.1-1.9.5-3.2-.5-.2-.1-1.1-.9-1-2.2.1-.9.7-1.6 1.1-1.9.2-.2.4-.3.4-.3l81.2-56.3 9.3-.2 1.8-1.7"/><path d="M0 435.2l40.8.3 19.7-14.2 9-.2L107 395c.1-.1.8-.9.7-2 0-.2-.1-1.2-1-1.7-.7-.4-1.6-.3-2.3.2l-31.8 22.8c-.2.2-1.4 1.3-3 1.2-.4 0-1.9-.2-2.3-1.3s.4-2.1.5-2.2l131.8-92 50-.3 4.5 3.2 15.7-.3 5.5-3.7"/><path d="M960 335l-63.3.3-40.5 28.7-44 .3"/><path d="M755.8 371l-4.3-2.7V363l7-3.5H787l14.5 10H857l44.7-31.5 58.3-.3"/><path d="M960 340.7l-53.3-.2-48.2 34.3-64.8-.5-3.9-2.8"/><path d="M686 323.7l3.9-2.7 27.1.4 13.8-9.9H934l13.8 10H960"/><path d="M666.7 334l10.9-7.7.1-7.7-5.3-2.9.3-4.3 4.3-2.9h261l3.5-3H952l4.5 3.5 3.5-.2"/><path d="M653.8 288.7l3.9-3.2H680l20.3 14 249.7.7 10 6.5"/><path d="M726.8 296.2l228.5.1 4.7 2.9"/><path d="M705.2 276.6l8.1 5.6 223.4.3 7.1-7H960"/><path d="M798.7 277.9h132.8l7.5-7.4h21"/><path d="M768.8 276.3l2.7-1.8h3.5l78.8-56h71.5l18.4-13H954l6 4"/><path d="M322.1 149.1l-6.6 4.7.5 17.5-6.1 5.1-4-.3-3.5 3.2-.3 6.6-5 3.9-7.1.6-22.9-16.4-31.9-.2-17.8-12.2-183.6-.1H29L15.8 171l-15.8.2"/><path d="M960 235l-93 .5"/><path d="M960 259.5h-83l-9 7h-17"/></g><g stroke="green"><circle cx="229.5" cy="196" r="2.8"/><circle cx="262.5" cy="206.5" r="2.8"/><circle cx="263" cy="186" r="2.8"/><circle cx="245" cy="193.5" r="2.8"/><circle cx="275" cy="172" r="2.8"/><circle cx="235" cy="142" r="2.8"/><circle cx="279" cy="126.5" r="2.8"/><circle cx="292.3" cy="126" r="2.8"/><circle cx="308" cy="136" r="2.8"/><circle cx="306.7" cy="148.5" r="2.8"/><circle cx="296" cy="183" r="2.8"/><circle cx="325.5" cy="148" r="2.8"/><circle cx="230" cy="180" r="2.8"/><circle cx="212" cy="171.5" r="2.8"/><circle cx="152.2" cy="176.5" r="2.8"/><circle cx="91.5" cy="179" r="2.8"/><circle cx="145.3" cy="185" r="2.8"/><circle cx="162" cy="186.5" r="2.8"/><circle cx="157" cy="194.5" r="2.8"/><circle cx="210.5" cy="181" r="2.8"/><circle cx="211" cy="195.5" r="2.8"/><circle cx="122.5" cy="245.5" r="2.8"/><circle cx="81.5" cy="286" r="2.8"/><circle cx="97.5" cy="246.5" r="2.8"/><circle cx="83.5" cy="246.3" r="2.8"/><circle cx="69" cy="247" r="2.8"/><circle cx="60" cy="249" r="2.8"/><circle cx="152" cy="328.5" r="2.8"/><circle cx="145" cy="335" r="2.8"/><circle cx="200" cy="292" r="2.8"/><circle cx="175.5" cy="297" r="2.8"/><circle cx="296" cy="294" r="2.8"/><circle cx="225" cy="269" r="2.8"/><circle cx="258" cy="264" r="2.8"/><circle cx="218" cy="266.5" r="2.8"/><circle cx="294.5" cy="270.5" r="2.8"/><circle cx="293.7" cy="260.5" r="2.8"/><circle cx="295" cy="250.5" r="2.8"/><circle cx="278" cy="240" r="2.8"/><circle cx="277" cy="251" r="2.8"/><circle cx="228.5" cy="245.5" r="2.8"/><circle cx="294" cy="239.5" r="2.8"/><circle cx="281" cy="192.5" r="2.8"/><circle cx="293.5" cy="227" r="2.8"/><circle cx="295" cy="217.5" r="2.8"/><circle cx="277" cy="215" r="2.8"/><circle cx="292.5" cy="205.5" r="2.8"/><circle cx="279" cy="206" r="2.8"/><circle cx="292.5" cy="304.5" r="2.8"/><circle cx="277.3" cy="304.5" r="2.8"/><circle cx="12.5" cy="400" r="2.8"/><circle cx="90.3" cy="322.5" r="2.8"/><circle cx="86.7" cy="317" r="2.8"/><circle cx="98.5" cy="337.5" r="2.8"/><circle cx="116.5" cy="345.5" r="2.8"/><circle cx="58.8" cy="328" r="2.8"/><circle cx="16" cy="343" r="2.8"/><circle cx="9" cy="326.5" r="2.8"/><circle cx="52" cy="320" r="2.8"/><circle cx="94" cy="300.5" r="2.8"/><circle cx="84" cy="299.5" r="2.8"/><circle cx="97" cy="309" r="2.8"/><circle cx="125.5" cy="301.5" r="2.8"/><circle cx="177.5" cy="259.5" r="2.8"/><circle cx="125.5" cy="288" r="2.8"/><circle cx="83.5" cy="278" r="2.8"/><circle cx="97.5" cy="282.5" r="2.8"/><circle cx="135" cy="246.5" r="2.8"/><circle cx="163.2" cy="470.2" r="2.8"/><circle cx="101" cy="513" r="2.8"/><circle cx="138.5" cy="477.3" r="2.8"/><circle cx="55.5" cy="528" r="2.8"/><circle cx="81.5" cy="525" r="2.8"/><circle transform="matrix(.905 -.4254 .4254 .905 -197.1245 91.2273)" cx="105.7" cy="487" r="2.8"/><circle cx="82.5" cy="498" r="2.8"/><circle cx="135" cy="470" r="2.8"/><circle cx="82" cy="491.8" r="2.8"/><circle cx="108" cy="471.5" r="2.8"/><circle cx="230" cy="440.5" r="2.8"/><circle cx="258.2" cy="418.5" r="2.8"/><circle cx="347" cy="399.3" r="2.8"/><circle cx="278" cy="406.8" r="2.8"/><circle cx="276.7" cy="385" r="2.8"/><circle cx="290.8" cy="373.5" r="2.8"/><circle cx="276.7" cy="372" r="2.8"/><circle cx="262" cy="384" r="2.8"/><circle cx="227.5" cy="393" r="2.8"/><circle cx="219.5" cy="375" r="2.8"/><circle cx="293.5" cy="361" r="2.8"/><circle cx="277.2" cy="364" r="2.8"/><circle cx="187.2" cy="389.2" r="2.8"/><circle cx="261" cy="350" r="2.8"/><circle cx="276.5" cy="351" r="2.8"/><circle cx="183.5" cy="382" r="2.8"/><circle cx="187" cy="374" r="2.8"/><circle cx="186" cy="364" r="2.8"/><circle cx="193" cy="355.5" r="2.8"/><circle cx="227.8" cy="345.5" r="2.8"/><circle cx="208" cy="324.5" r="2.8"/><circle cx="218" cy="326.5" r="2.8"/><circle cx="230.5" cy="327.5" r="2.8"/><circle cx="246" cy="328" r="2.8"/><circle cx="278.5" cy="338.5" r="2.8"/><circle cx="278.5" cy="328.3" r="2.8"/><circle cx="277.5" cy="317" r="2.8"/><circle cx="261.5" cy="316.5" r="2.8"/><circle cx="96" cy="187" r="2.8"/><circle cx="374" cy="398" r="2.8"/><circle cx="375" cy="410.3" r="2.8"/><circle cx="364.7" cy="399.5" r="2.8"/><circle cx="327" cy="538" r="2.8"/><circle cx="338.2" cy="525.5" r="2.8"/><circle cx="305.7" cy="553.5" r="2.8"/><circle cx="286.8" cy="553" r="2.8"/><circle cx="273" cy="547.5" r="2.8"/><circle cx="360.5" cy="421.3" r="2.8"/><circle cx="356" cy="407" r="2.8"/><circle cx="343" cy="408.5" r="2.8"/><circle cx="323.5" cy="432.3" r="2.8"/><circle cx="326" cy="419.8" r="2.8"/><circle cx="325.8" cy="408.2" r="2.8"/><circle cx="294" cy="421" r="2.8"/><circle cx="276" cy="426" r="2.8"/><circle cx="261.5" cy="432.5" r="2.8"/><circle cx="208" cy="491" r="2.8"/><circle cx="262.8" cy="452.2" r="2.8"/><circle cx="98" cy="523" r="2.8"/><circle cx="525.8" cy="452" r="2.8"/><circle cx="514.7" cy="420.5" r="2.8"/><circle cx="492" cy="382.7" r="2.8"/><circle cx="568.5" cy="538.3" r="2.8"/><circle cx="536" cy="533" r="2.8"/><circle cx="485.7" cy="398.5" r="2.8"/><circle cx="485.5" cy="419" r="2.8"/><circle cx="487.5" cy="407.8" r="2.8"/><circle cx="459" cy="554" r="2.8"/><circle cx="465.5" cy="435.5" r="2.8"/><circle cx="418.8" cy="553.8" r="2.8"/><circle cx="414" cy="544.3" r="2.8"/><circle cx="440.2" cy="397.2" r="2.8"/><circle cx="437.5" cy="409" r="2.8"/><circle cx="437" cy="418.8" r="2.8"/><circle cx="422" cy="423" r="2.8"/><circle cx="422.3" cy="409.5" r="2.8"/><circle cx="408.5" cy="410" r="2.8"/><circle cx="407.5" cy="398" r="2.8"/><circle cx="393.5" cy="398.5" r="2.8"/><circle cx="831" cy="513" r="2.8"/><circle cx="793" cy="501.5" r="2.8"/><circle cx="790.8" cy="524.2" r="2.8"/><circle cx="767" cy="494" r="2.8"/><circle cx="760.5" cy="498.7" r="2.8"/><circle cx="749" cy="493.2" r="2.8"/><circle cx="708" cy="535.2" r="2.8"/><circle cx="582.5" cy="431.2" r="2.8"/><circle cx="614.8" cy="418.5" r="2.8"/><circle cx="612.5" cy="407.2" r="2.8"/><circle cx="584.5" cy="408" r="2.8"/><circle cx="568" cy="410.7" r="2.8"/><circle cx="608.5" cy="456.5" r="2.8"/><circle cx="583" cy="452.5" r="2.8"/><circle cx="577.5" cy="509.5" r="2.8"/><circle cx="567.5" cy="428.5" r="2.8"/><circle cx="561.5" cy="418.5" r="2.8"/><circle cx="552.7" cy="430" r="2.8"/><circle cx="535.5" cy="408.5" r="2.8"/><circle cx="534.5" cy="440" r="2.8"/><circle cx="667.5" cy="386" r="2.8"/><circle cx="679.5" cy="397" r="2.8"/><circle cx="713.8" cy="388.5" r="2.8"/><circle cx="697" cy="396.5" r="2.8"/><circle cx="724.3" cy="404" r="2.8"/><circle cx="699.7" cy="408.5" r="2.8"/><circle cx="682.3" cy="407.5" r="2.8"/><circle cx="665.5" cy="407.3" r="2.8"/><circle cx="746.5" cy="424.5" r="2.8"/><circle cx="762" cy="420" r="2.8"/><circle cx="859.5" cy="444.5" r="2.8"/><circle cx="853.8" cy="435.5" r="2.8"/><circle cx="873.3" cy="443" r="2.8"/><circle cx="800" cy="472" r="2.8"/><circle cx="652" cy="419.5" r="2.8"/><circle cx="665.3" cy="430.5" r="2.8"/><circle cx="678.5" cy="433.5" r="2.8"/><circle cx="649.8" cy="432.5" r="2.8"/><circle cx="806.3" cy="493.5" r="2.8"/><circle cx="633.5" cy="420.5" r="2.8"/><circle cx="765.5" cy="346" r="2.8"/><circle cx="786.5" cy="343.5" r="2.8"/><circle cx="926.7" cy="331.5" r="2.8"/><circle cx="905.2" cy="330.2" r="2.8"/><circle cx="862" cy="349.8" r="2.8"/><circle cx="871" cy="343.5" r="2.8"/><circle cx="809.5" cy="364.5" r="2.8"/><circle cx="848.8" cy="356" r="2.8"/><circle cx="654.5" cy="359.8" r="2.8"/><circle cx="916" cy="370" r="2.8"/><circle cx="894.8" cy="366" r="2.8"/><circle cx="917.8" cy="358" r="2.8"/><circle cx="943.5" cy="365" r="2.8"/><circle cx="883.5" cy="371.5" r="2.8"/><circle cx="876.5" cy="378.5" r="2.8"/><circle cx="697.5" cy="371.5" r="2.8"/><circle cx="736.2" cy="377.2" r="2.8"/><circle cx="788.5" cy="370" r="2.8"/><circle cx="758.8" cy="373" r="2.8"/><circle cx="661.5" cy="377" r="2.8"/><circle cx="802" cy="268" r="2.8"/><circle cx="922" cy="272.5" r="2.8"/><circle cx="796.3" cy="277.5" r="2.8"/><circle cx="703.5" cy="275" r="2.8"/><circle cx="668.5" cy="279" r="2.8"/><circle cx="682.5" cy="281.5" r="2.8"/><circle cx="724.5" cy="296" r="2.8"/><circle cx="653.5" cy="291.5" r="2.8"/><circle cx="652.5" cy="304.5" r="2.8"/><circle cx="932" cy="304.5" r="2.8"/><circle cx="665" cy="336" r="2.8"/><circle cx="648.5" cy="331" r="2.8"/><circle cx="684" cy="325.5" r="2.8"/><circle cx="729.5" cy="334" r="2.8"/><circle cx="750.5" cy="327" r="2.8"/><circle cx="759" cy="332" r="2.8"/><circle cx="770" cy="332" r="2.8"/><circle cx="878.7" cy="331.5" r="2.8"/><circle cx="740.5" cy="344.5" r="2.8"/><circle cx="665" cy="353" r="2.8"/><circle cx="438" cy="158" r="2.8"/><circle cx="406" cy="146" r="2.8"/><circle cx="406" cy="125" r="2.8"/><circle cx="403.5" cy="157" r="2.8"/><circle cx="388" cy="136.5" r="2.8"/><circle cx="386" cy="145.5" r="2.8"/><circle cx="386" cy="158" r="2.8"/><circle cx="371" cy="157.5" r="2.8"/><circle cx="356" cy="138" r="2.8"/><circle cx="355.5" cy="147.5" r="2.8"/><circle cx="115" cy="60.2" r="2.8"/><circle cx="233" cy="61.5" r="2.8"/><circle cx="330" cy="112" r="2.8"/><circle cx="242.5" cy="90.5" r="2.8"/><circle cx="256" cy="74" r="2.8"/><circle cx="217.5" cy="97" r="2.8"/><circle cx="203.5" cy="97.5" r="2.8"/><circle cx="192.5" cy="104" r="2.8"/><circle cx="204" cy="128.5" r="2.8"/><circle cx="220.5" cy="120.5" r="2.8"/><circle cx="435" cy="146" r="2.8"/><circle cx="423" cy="147.5" r="2.8"/><circle cx="375" cy="79" r="2.8"/><circle cx="367" cy="70" r="2.8"/><circle cx="378" cy="85" r="2.8"/><circle cx="388" cy="93" r="2.8"/><circle cx="9.5" cy="8.5" r="2.8"/><circle cx="9" cy="18.5" r="2.8"/><circle cx="315.5" cy="91" r="2.8"/><circle cx="315.5" cy="98" r="2.8"/><circle cx="324.5" cy="106" r="2.8"/><circle cx="8.5" cy="31" r="2.8"/><circle cx="181.5" cy="5.5" r="2.8"/><circle cx="80.5" cy="39" r="2.8"/><circle cx="57.5" cy="54" r="2.8"/><circle cx="69.5" cy="61.5" r="2.8"/><circle cx="240.5" cy="54" r="2.8"/><circle cx="155" cy="39" r="2.8"/><circle cx="130.5" cy="50.5" r="2.8"/><circle cx="131.5" cy="65" r="2.8"/><circle cx="531" cy="94.5" r="2.8"/><circle cx="531.5" cy="106.5" r="2.8"/><circle cx="517.5" cy="159.5" r="2.8"/><circle cx="505.5" cy="80" r="2.8"/><circle cx="513" cy="99" r="2.8"/><circle cx="501.8" cy="134.5" r="2.8"/><circle cx="496" cy="70.5" r="2.8"/><circle cx="485" cy="162.5" r="2.8"/><circle cx="470.5" cy="148" r="2.8"/><circle cx="448" cy="69.5" r="2.8"/><circle cx="430.5" cy="68" r="2.8"/><circle cx="440.5" cy="91.5" r="2.8"/><circle cx="470" cy="136" r="2.8"/><circle cx="453" cy="157.5" r="2.8"/><circle cx="450.5" cy="148" r="2.8"/><circle cx="433" cy="110" r="2.8"/><circle cx="423.5" cy="103" r="2.8"/><circle cx="419.5" cy="111" r="2.8"/><circle cx="409" cy="63.5" r="2.8"/><circle cx="420" cy="52" r="2.8"/><circle cx="675.5" cy="215" r="2.8"/><circle cx="664.5" cy="212.5" r="2.8"/><circle cx="662.3" cy="203" r="2.8"/><circle cx="695.5" cy="108.5" r="2.8"/><circle cx="692.5" cy="98" r="2.8"/><circle cx="678.5" cy="122" r="2.8"/><circle cx="676.5" cy="110" r="2.8"/><circle cx="683.5" cy="157.5" r="2.8"/><circle cx="698.5" cy="146.5" r="2.8"/><circle cx="701" cy="135" r="2.8"/><circle cx="712" cy="180.5" r="2.8"/><circle cx="678.5" cy="146.5" r="2.8"/><circle cx="563" cy="122" r="2.8"/><circle cx="458.5" cy="107.5" r="2.8"/><circle cx="542" cy="82.5" r="2.8"/><circle cx="611.5" cy="28.5" r="2.8"/><circle cx="595" cy="28.5" r="2.8"/><circle cx="490" cy="8" r="2.8"/><circle cx="520.5" cy="57.5" r="2.8"/><circle cx="561.5" cy="107" r="2.8"/><circle cx="650.5" cy="108" r="2.8"/><circle cx="659" cy="100" r="2.8"/><circle cx="631" cy="146.5" r="2.8"/><circle cx="596" cy="143.5" r="2.8"/><circle cx="582" cy="157.5" r="2.8"/><circle cx="549" cy="156.5" r="2.8"/><circle cx="535.5" cy="157" r="2.8"/><circle cx="604" cy="109.5" r="2.8"/><circle cx="613.8" cy="167.5" r="2.8"/><circle cx="531.5" cy="148.5" r="2.8"/><circle cx="832.5" cy="91" r="2.8"/><circle cx="824.5" cy="97.5" r="2.8"/><circle cx="809" cy="128" r="2.8"/><circle cx="811.8" cy="114" r="2.8"/><circle cx="800.5" cy="111" r="2.8"/><circle cx="801" cy="165" r="2.8"/><circle cx="807.5" cy="102" r="2.8"/><circle cx="802" cy="96" r="2.8"/><circle cx="777" cy="78" r="2.8"/><circle cx="801.5" cy="59" r="2.8"/><circle cx="776.5" cy="70" r="2.8"/><circle cx="762.5" cy="84.5" r="2.8"/><circle cx="780.5" cy="113.5" r="2.8"/><circle cx="803" cy="174.5" r="2.8"/><circle cx="696" cy="225.7" r="2.8"/><circle cx="696.5" cy="215.5" r="2.8"/><circle cx="713.5" cy="214.2" r="2.8"/><circle cx="728.5" cy="224" r="2.8"/><circle cx="777.5" cy="198.5" r="2.8"/><circle cx="926.2" cy="200" r="2.8"/><circle cx="791.5" cy="241.5" r="2.8"/><circle cx="764.5" cy="250" r="2.8"/><circle cx="795" cy="229" r="2.8"/><circle cx="844.5" cy="198" r="2.8"/><circle cx="917" cy="188.5" r="2.8"/><circle cx="896" cy="186.5" r="2.8"/><circle cx="889" cy="166" r="2.8"/><circle cx="833.5" cy="110" r="2.8"/><circle cx="842" cy="105" r="2.8"/><circle cx="717.8" cy="196.5" r="2.8"/><circle cx="664.5" cy="267.5" r="2.8"/><circle cx="675" cy="261.5" r="2.8"/><circle cx="667.5" cy="253.5" r="2.8"/><circle cx="640.7" cy="237" r="2.8"/><circle cx="653" cy="235.5" r="2.8"/><circle cx="666" cy="233" r="2.8"/><circle cx="665" cy="225.5" r="2.8"/><circle cx="855" cy="152.5" r="2.8"/><circle cx="835.5" cy="163.5" r="2.8"/><circle cx="836.5" cy="149" r="2.8"/><circle cx="839" cy="140" r="2.8"/><circle cx="800.5" cy="184" r="2.8"/><circle cx="727.5" cy="171" r="2.8"/><circle cx="824" cy="110" r="2.8"/><circle cx="758.5" cy="263.5" r="2.8"/><circle cx="849" cy="265" r="2.8"/><circle cx="834" cy="255.5" r="2.8"/><circle cx="872.5" cy="249.3" r="2.8"/><circle cx="868" cy="242.5" r="2.8"/><circle cx="864.5" cy="235.5" r="2.8"/><circle cx="951.5" cy="246" r="2.8"/><circle cx="951.5" cy="228" r="2.8"/><circle cx="871.8" cy="230.5" r="2.8"/><circle cx="852" cy="254" r="2.8"/><circle cx="813.5" cy="263.5" r="2.8"/><circle cx="766.5" cy="278.5" r="2.8"/><circle cx="893" cy="208.5" r="2.8"/><circle cx="753.8" cy="257.5" r="2.8"/><circle cx="763.5" cy="211" r="2.8"/><path d="M875 230.5h62l9.8-10H960" stroke-linecap="round" class="C"/></g></g></svg>
